<svg xmlns="http://www.w3.org/2000/svg" width="16" height="16" viewBox="0 0 16 16" fill="none">
  <path d="M1.6001 12.5707V4.03599C1.6001 3.55092 1.79221 3.08514 2.13521 2.74215C2.47821 2.39915 2.94399 2.20703 3.42906 2.20703H7.69639C8.0331 2.20703 8.30581 2.47974 8.30581 2.81645C8.30581 3.15315 8.0331 3.42586 7.69639 3.42586H3.42906C3.26737 3.42586 3.11187 3.49014 2.99754 3.60447C2.88321 3.7188 2.81893 3.8743 2.81893 4.03599V12.5707C2.81893 12.7324 2.88321 12.8879 2.99754 13.0022C3.11187 13.1165 3.26737 13.1808 3.42906 13.1808H11.9637C12.1254 13.1808 12.2809 13.1165 12.3953 13.0022C12.5096 12.8879 12.5739 12.7324 12.5739 12.5707V8.30333C12.5739 7.96663 12.8466 7.69391 13.1833 7.69391C13.52 7.69391 13.7927 7.96663 13.7927 8.30333V12.5707C13.7927 13.0557 13.6006 13.5215 13.2576 13.8645C12.9146 14.2075 12.4488 14.3996 11.9637 14.3996H3.42906C2.94399 14.3996 2.47821 14.2075 2.13521 13.8645C1.79221 13.5215 1.6001 13.0557 1.6001 12.5707Z" fill="#000"/>
  <path d="M13.1807 3.50216C13.1807 3.32091 13.1081 3.14737 12.98 3.0192C12.8518 2.89104 12.6783 2.81849 12.497 2.81844C12.3157 2.81844 12.1415 2.89099 12.0133 3.0192L6.51859 8.51465C6.44621 8.58691 6.39309 8.67657 6.36428 8.77471L6.00777 9.99068L7.22517 9.63489H7.22589C7.324 9.60619 7.41363 9.55282 7.48594 9.48057L12.98 3.98583C13.1082 3.85763 13.1807 3.68346 13.1807 3.50216ZM14.3996 3.50216C14.3996 4.00684 14.1992 4.49129 13.8423 4.84816L8.34755 10.3436C8.1576 10.5334 7.92833 10.6784 7.6767 10.7694L7.56739 10.8051L5.8163 11.3174H5.81559C5.65822 11.3633 5.49142 11.3659 5.33263 11.3253C5.17385 11.2846 5.02916 11.2018 4.91325 11.0859C4.79735 10.97 4.71461 10.8253 4.67392 10.6665C4.63324 10.5078 4.63589 10.3409 4.68178 10.1836V10.1829L5.19403 8.43178V8.43106C5.28047 8.13665 5.43983 7.8684 5.65698 7.65161L11.151 2.15687C11.5079 1.8 11.9923 1.59961 12.497 1.59961C13.0016 1.59966 13.4855 1.80005 13.8423 2.15687C14.1991 2.5137 14.3995 2.99753 14.3996 3.50216Z" fill="#000"/>
</svg>
