<svg width="20" height="20" viewBox="102 6 20 20" fill="none" xmlns="http://www.w3.org/2000/svg">
<path d="M103.667 16.0001C103.667 20.6026 107.397 24.3334 112 24.3334C116.602 24.3334 120.333 20.6026 120.333 16.0001C120.333 11.3976 116.602 7.66675 112 7.66675V9.33341C113.568 9.33354 115.085 9.88613 116.286 10.8941C117.486 11.9021 118.294 13.301 118.565 14.8449C118.837 16.3889 118.556 17.9792 117.771 19.3365C116.986 20.6937 115.749 21.7311 114.275 22.2663C112.802 22.8014 111.187 22.8002 109.714 22.2628C108.241 21.7254 107.005 20.6861 106.223 19.3277C105.44 17.9693 105.161 16.3785 105.435 14.8349C105.709 13.2914 106.518 11.8937 107.721 10.8876L109.5 12.6667V7.66675H104.5L106.538 9.70591C105.636 10.4875 104.912 11.4542 104.417 12.5402C103.921 13.6263 103.665 14.8063 103.667 16.0001Z" fill="#000"/>
</svg>
