<svg width="20" height="20" viewBox="0 0 20 20" fill="none" xmlns="http://www.w3.org/2000/svg">
<path fill-rule="evenodd" clip-rule="evenodd" d="M8 1.11523C11.866 1.11523 15 4.24924 15 8.11523C15 9.5597 14.5622 10.9018 13.8125 12.0166L18.4229 16.5625C18.6585 16.7952 18.6587 17.1727 18.4229 17.4053L17.4961 18.3184C17.2601 18.551 16.8776 18.551 16.6416 18.3184L12.0684 13.8096C10.9216 14.6304 9.51783 15.1152 8 15.1152C4.13401 15.1152 1 11.9812 1 8.11523C1 4.24924 4.13401 1.11523 8 1.11523ZM8 3.11523C5.23858 3.11523 3 5.35381 3 8.11523C3 10.8767 5.23858 13.1152 8 13.1152C10.7614 13.1152 13 10.8767 13 8.11523C13 5.35381 10.7614 3.11523 8 3.11523Z" fill="#6F7A93"/>
</svg>
